<svg width="681" height="459" viewBox="0 0 681 459" fill="none" xmlns="http://www.w3.org/2000/svg">
<path d="M342.982 0.0234348C361.422 0.0234348 379.85 0.0349814 398.29 0.0234348C420.921 0.000341614 440.065 8.2908 455.561 24.6408C467.35 37.0765 474.509 51.8677 476.079 69.1068C476.564 74.4759 476.992 79.8797 477.003 85.2605C477.084 119.311 477.142 153.362 477.003 187.413C476.911 208.382 469.937 226.926 455.469 242.179C443.056 255.273 427.803 263.482 409.686 265.711C404.121 266.392 398.498 266.808 392.898 266.819C359.932 266.923 326.966 266.819 294.001 266.9C283.112 266.935 272.363 266.138 262.144 262.189C234.928 251.682 217.586 232.503 211.593 203.648C210.808 199.872 210.311 195.958 210.3 192.101C210.196 153.281 210.3 114.462 210.207 75.6306C210.126 40.2056 238.231 7.04377 274.164 1.33975C278.84 0.600765 283.609 0.127354 288.332 0.0811678C306.552 -0.0573914 324.773 0.0234348 342.982 0.0234348ZM343.016 252.744C361.445 252.744 379.873 252.594 398.301 252.79C411.268 252.929 423.104 249.522 433.784 242.352C452.282 229.939 462.57 212.516 462.835 190.208C463.274 152.277 462.939 114.323 462.974 76.3811C462.985 67.5711 461.08 59.1651 457.224 51.3596C444.961 26.4767 424.478 13.8563 397.043 13.4752C361.491 12.9787 325.927 13.302 290.375 13.4059C285.422 13.4175 280.376 13.7523 275.549 14.7915C243.993 21.6387 223.717 48.0111 223.578 78.2632C223.417 115.12 223.486 151.977 223.624 188.833C223.647 193.544 224.283 198.336 225.299 202.932C231.765 232.076 259.523 253.518 288.366 252.825C306.587 252.386 324.807 252.744 343.016 252.744Z" fill="#23211D"/>
<path d="M343.639 203.036C381.927 203.036 412.965 171.879 412.965 133.444C412.965 95.0102 381.927 63.853 343.639 63.853C305.352 63.853 274.313 95.0102 274.313 133.444C274.313 171.879 305.352 203.036 343.639 203.036Z" fill="#23211D"/>
<path d="M416.694 66.6818C423.537 66.6818 429.084 61.1349 429.084 54.2923C429.084 47.4498 423.537 41.9028 416.694 41.9028C409.852 41.9028 404.305 47.4498 404.305 54.2923C404.305 61.1349 409.852 66.6818 416.694 66.6818Z" fill="#23211D"/>
<path d="M343.638 80.3184C315.499 80.3184 289.843 100.225 289.843 124.623H397.434C397.434 100.236 371.777 80.3184 343.638 80.3184Z" fill="#FAA51A"/>
<path d="M343.638 186.57C315.499 186.57 289.843 166.664 289.843 142.266H397.434C397.434 166.664 371.777 186.57 343.638 186.57Z" fill="#FAA51A"/>
<path d="M374.398 88.6899C374.398 88.6899 388.37 95.9643 394.005 109.439C394.005 109.439 397.076 114.531 397.434 124.635H389.236C389.236 124.635 391.233 98.5623 374.398 88.6899Z" fill="#EA8224"/>
<path d="M373.798 178.557C373.798 178.557 388.358 171.11 394.004 157.485C394.004 157.485 397.087 152.369 397.445 142.266H389.247C389.236 142.266 390.633 168.685 373.798 178.557Z" fill="#EA8224"/>
<path d="M291.598 136.226C292.81 135.141 294.069 134.113 295.628 133.582C297.625 132.901 299.807 133.016 301.84 133.444C305.488 134.206 308.825 135.995 312.486 136.734C315.984 137.439 319.183 137.035 322.37 135.441C323.64 134.806 324.864 134.09 326.215 133.663C328.27 133.016 330.394 133.178 332.45 133.744C335.856 134.668 338.904 136.55 342.438 137C346.052 137.462 349.146 136.469 352.241 134.679C353.765 133.79 355.277 133.097 357.067 132.97C359.053 132.832 361.016 133.259 362.898 133.836C366.293 134.875 369.503 136.723 373.163 136.042C374.976 135.707 376.581 134.795 378.29 134.171C380.357 133.421 382.55 133.086 384.744 133.051C388.97 132.982 393.196 133.998 396.845 136.157C398.127 136.919 399.293 134.922 398.011 134.16C391.776 130.476 383.451 129.518 376.696 132.324C374.999 133.028 373.29 133.882 371.408 133.894C369.306 133.906 367.344 132.924 365.404 132.231C361.997 131.007 358.176 130.014 354.585 131.054C353.06 131.492 351.709 132.324 350.347 133.109C348.534 134.148 346.664 134.772 344.539 134.806C340.567 134.875 337.253 132.739 333.558 131.642C330.06 130.603 326.688 130.753 323.397 132.324C321.989 132.993 320.661 133.825 319.171 134.31C317.104 134.979 314.945 134.899 312.844 134.448C308.583 133.536 304.726 131.342 300.35 130.88C296.217 130.442 292.972 131.885 289.958 134.587C288.861 135.58 290.501 137.208 291.598 136.226Z" fill="#F1C618"/>
<path opacity="0.42" d="M300.5 118.503C301.572 118.503 302.44 117.686 302.44 116.678C302.44 115.671 301.572 114.854 300.5 114.854C299.429 114.854 298.561 115.671 298.561 116.678C298.561 117.686 299.429 118.503 300.5 118.503Z" fill="#23211D"/>
<path opacity="0.42" d="M304.992 112.764C306.063 112.764 306.931 111.948 306.931 110.94C306.931 109.933 306.063 109.116 304.992 109.116C303.92 109.116 303.052 109.933 303.052 110.94C303.052 111.948 303.92 112.764 304.992 112.764Z" fill="#23211D"/>
<path opacity="0.42" d="M307.52 119C308.591 119 309.46 118.183 309.46 117.175C309.46 116.168 308.591 115.351 307.52 115.351C306.449 115.351 305.58 116.168 305.58 117.175C305.58 118.183 306.449 119 307.52 119Z" fill="#23211D"/>
<path d="M16.4539 293.261C16.4539 303.352 16.2576 313.583 15.865 323.975C15.4725 334.367 15.1953 344.689 15.0337 354.943C14.976 359.619 15.0221 364.261 15.1607 368.856C15.2993 373.452 15.4609 377.828 15.6572 381.985C15.8535 386.142 16.0382 389.929 16.1999 393.347C16.3615 396.764 16.4539 399.651 16.4539 401.995C16.4539 403.612 16.3962 404.905 16.2923 405.886C16.1768 406.868 15.9805 407.433 15.7034 407.595C15.4263 407.872 15.1722 408.045 14.9528 408.092C14.7335 408.149 14.5025 408.172 14.2831 408.172C14.0638 408.172 13.8213 408.161 13.5673 408.126C13.3132 408.103 13.0246 408.172 12.6897 408.334C12.2971 408.496 12.0547 408.68 11.9392 408.877C11.8237 409.073 11.7198 409.281 11.6043 409.5C11.4889 409.72 11.3272 409.951 11.1078 410.17C10.8884 410.389 10.4959 410.62 9.94163 410.84C9.21419 411.001 8.53294 410.828 7.89787 410.297C7.25126 409.766 6.62776 409.339 6.01579 409.004C5.06897 408.45 4.30688 407.988 3.71801 407.63C3.12913 407.272 2.58644 406.694 2.08993 405.921C1.69735 405.251 1.3625 404.235 1.08538 402.873C0.808265 401.51 0.588878 399.893 0.415678 398.023C0.254026 396.152 0.138568 394.086 0.0808347 391.799C0.0231017 389.513 0 387.146 0 384.698C0 381.915 0.0231017 379.11 0.0808347 376.304C0.138568 373.486 0.207839 370.796 0.288665 368.233C0.369491 365.669 0.43878 363.36 0.496513 361.293C0.554246 359.226 0.611979 357.564 0.658165 356.282C0.773631 352.275 0.92373 348.061 1.12002 343.662C1.31631 339.262 1.5126 334.875 1.70889 330.498C1.90518 326.122 2.11303 321.908 2.33242 317.832C2.5518 313.767 2.78274 310.049 3.00212 306.678C3.22151 303.306 3.42934 300.431 3.62563 298.064C3.82193 295.697 4.02977 294.034 4.24916 293.087C4.58401 291.921 5.17288 291.251 6.00423 291.078C6.39682 290.917 6.70858 290.94 6.9626 291.159C7.21663 291.379 7.50529 291.24 7.84014 290.743C7.9556 290.466 8.11726 290.293 8.33665 290.247C8.55604 290.189 8.78697 290.166 9.00636 290.166C9.22574 290.166 9.45667 290.166 9.67606 290.166C9.89545 290.166 10.0917 290.108 10.2649 289.993C10.5998 289.658 10.9462 289.589 11.3041 289.785C11.6621 289.981 11.9276 290.166 12.1008 290.328C12.2625 290.72 12.4934 291.009 12.7705 291.205C13.0477 291.402 13.3594 291.355 13.6943 291.078C13.8559 290.917 14.0984 290.824 14.3986 290.824C14.6988 290.824 14.9182 290.963 15.0221 291.24C15.1838 291.517 15.4724 291.794 15.8535 292.071C16.2576 292.372 16.4539 292.764 16.4539 293.261Z" fill="#23211D"/>
<path d="M86.7377 406.44C86.7377 407.11 86.4953 407.849 86.0218 408.657C85.5484 409.466 84.8672 409.87 83.9781 409.87C83.4816 409.87 83.089 409.731 82.8119 409.454C82.5347 409.177 82.2576 409.038 81.9805 409.038C81.5879 409.038 81.2184 409.177 80.8489 409.454C80.491 409.731 79.8906 409.87 79.0477 409.87C77.9277 409.87 76.9693 409.466 76.161 408.657C75.3528 407.849 74.6946 406.821 74.1981 405.563C73.7016 404.304 73.3206 402.942 73.0665 401.464C72.8125 399.986 72.6855 398.612 72.6855 397.33C72.6855 394.825 72.7779 391.973 72.9742 388.763C73.1704 385.564 73.3899 382.273 73.6439 378.902C73.8979 375.53 74.1173 372.17 74.3136 368.833C74.5099 365.485 74.6022 362.402 74.6022 359.55C74.6022 355.762 74.3482 352.806 73.8517 350.693C73.3552 348.58 72.4546 347.518 71.1729 347.518C69.9489 347.691 68.6904 348.742 67.4087 350.693C66.127 352.645 64.8223 355.139 63.4828 358.176C62.1434 361.212 60.8387 364.642 59.557 368.452C58.2753 372.274 57.0398 376.165 55.839 380.149C54.6382 384.132 53.5066 388.001 52.4559 391.765C51.3936 395.529 50.4467 398.889 49.6154 401.833C48.784 404.789 48.0566 407.168 47.4446 408.981C46.8326 410.794 46.417 411.694 46.186 411.694C45.7357 411.694 45.4009 411.602 45.1815 411.405C44.9621 411.209 44.7543 411.001 44.558 410.782C44.3617 410.563 44.1307 410.355 43.8421 410.158C43.565 409.962 43.1493 409.87 42.5835 409.87C42.087 409.87 41.7521 409.928 41.5789 410.043C41.4057 410.158 41.221 410.297 40.9901 410.459C40.7707 410.62 40.4936 410.759 40.1587 410.874C39.8239 410.99 39.235 411.036 38.4036 411.036C37.3991 411.036 36.4061 410.782 35.4362 410.285C34.4662 409.789 33.9697 409.004 33.9697 407.942C33.9697 407.272 34.0852 405.898 34.3046 403.808C34.524 401.718 34.7895 399.155 35.1013 396.118C35.4015 393.081 35.7364 389.686 36.1059 385.922C36.4638 382.158 36.7986 378.278 37.1104 374.26C37.4106 370.242 37.6762 366.235 37.9071 362.229C38.1265 358.222 38.242 354.4 38.242 350.774C38.242 348.996 38.2189 347.333 38.1611 345.798C38.1034 344.262 38.0803 342.807 38.0803 341.41C38.0803 341.075 38.242 340.913 38.5768 340.913C39.2465 340.913 39.7546 341.04 40.1241 341.295C40.482 341.549 40.7476 341.814 40.9208 342.091C41.0824 342.368 41.1864 342.634 41.2095 342.888C41.2325 343.142 41.2787 343.257 41.3365 343.257C41.4981 343.257 41.6944 343.165 41.9253 342.969C42.1447 342.772 42.3872 342.565 42.6297 342.345C42.8837 342.126 43.1146 341.918 43.3456 341.722C43.5649 341.525 43.7613 341.433 43.9345 341.433H44.7658C45.5972 341.433 46.186 341.306 46.5209 341.052C46.8557 340.798 47.0867 340.521 47.2252 340.221C47.3638 339.92 47.4562 339.632 47.5139 339.389C47.5716 339.135 47.7333 339.008 48.0104 339.008C48.1721 339.008 48.4145 339.135 48.7263 339.389C49.0265 339.643 49.3383 340.059 49.65 340.648C49.9502 341.237 50.2158 341.999 50.4467 342.946C50.6661 343.893 50.7816 345.036 50.7816 346.375C50.7816 348.165 50.7123 350.416 50.5737 353.141C50.4352 355.866 50.262 358.788 50.0772 361.871C49.8809 364.965 49.6962 368.083 49.5345 371.235C49.3729 374.387 49.2574 377.239 49.1997 379.802C49.8117 377.401 50.5507 374.745 51.4166 371.824C52.2826 368.902 53.2872 365.935 54.4303 362.921C55.5734 359.908 56.8089 356.975 58.1483 354.1C59.4877 351.236 60.9311 348.684 62.4899 346.456C64.0486 344.227 65.6883 342.426 67.4202 341.064C69.1522 339.701 70.9535 339.02 72.8587 339.02C75.8723 339.02 78.3318 339.574 80.2601 340.694C82.1883 341.814 83.701 343.338 84.821 345.29C85.9295 347.241 86.7031 349.527 87.1187 352.148C87.5344 354.769 87.7423 357.575 87.7423 360.589C87.7423 363.152 87.6268 365.843 87.4074 368.648C87.188 371.466 86.9456 374.272 86.7031 377.089C86.4491 379.906 86.2297 382.678 86.0334 385.403C85.8371 388.139 85.7447 390.691 85.7447 393.093C85.7447 396.049 85.9063 398.704 86.2412 401.071C86.576 403.415 86.7377 405.205 86.7377 406.44Z" fill="#23211D"/>
<path d="M154.021 344.331C154.182 344.666 154.286 345.001 154.309 345.335C154.332 345.67 154.355 346.063 154.355 346.502C154.355 348.28 153.42 350.15 151.561 352.102C149.691 354.053 146.758 355.831 142.74 357.448C141.908 357.783 141.158 357.944 140.488 357.944C139.657 357.944 138.941 357.713 138.352 357.228C137.763 356.755 137.474 356.27 137.474 355.762C137.474 355.427 137.682 355.035 138.098 354.596C138.513 354.146 138.964 353.707 139.437 353.256C139.911 352.806 140.361 352.39 140.777 351.998C141.192 351.605 141.4 351.305 141.4 351.074C141.4 350.624 141.042 350.404 140.315 350.404C139.195 350.404 137.774 350.728 136.054 351.363C134.322 351.998 132.498 352.841 130.581 353.868C128.653 354.896 126.713 356.016 124.727 357.217C122.752 358.418 120.974 359.584 119.415 360.727C117.857 361.87 116.586 362.886 115.617 363.775C114.647 364.664 114.15 365.311 114.15 365.704C114.15 365.923 114.37 366.039 114.82 366.039H117.245C118.746 366.039 120.686 366.119 123.053 366.293C125.42 366.454 127.914 366.778 130.535 367.251C133.156 367.724 135.788 368.394 138.433 369.26C141.077 370.126 143.444 371.281 145.534 372.724C147.624 374.179 149.333 375.934 150.672 377.989C152.011 380.056 152.681 382.504 152.681 385.344C152.681 386.799 152.439 388.335 151.965 389.986C151.492 391.626 150.66 393.3 149.46 394.997C148.259 396.695 146.631 398.427 144.575 400.182C142.509 401.937 139.899 403.68 136.724 405.401C131.932 407.964 127.463 409.858 123.307 411.082C119.15 412.306 115.409 412.918 112.06 412.918C107.719 412.918 104.289 411.948 101.784 409.996C99.2781 408.045 98.0195 405.262 98.0195 401.637C98.0195 398.958 98.5391 396.683 99.5668 394.79C100.594 392.896 101.807 391.326 103.204 390.067C104.601 388.808 105.987 387.896 107.384 387.307C108.781 386.719 109.832 386.407 110.559 386.349C110.894 386.349 111.183 386.326 111.437 386.268C111.691 386.21 111.956 386.187 112.233 386.187C112.73 386.187 112.984 386.499 112.984 387.111V387.966C112.984 388.3 113.065 388.589 113.238 388.843C113.4 389.097 113.492 389.363 113.492 389.64C113.492 389.975 113.088 390.471 112.28 391.141C111.471 391.811 110.594 392.596 109.647 393.485C108.7 394.374 107.823 395.321 107.014 396.325C106.206 397.33 105.802 398.3 105.802 399.247C105.802 400.367 106.691 400.921 108.481 400.921C110.709 400.921 113.065 400.494 115.547 399.628C118.03 398.762 120.455 397.665 122.822 396.325C125.189 394.986 127.44 393.473 129.588 391.764C131.736 390.067 133.618 388.404 135.234 386.788C136.851 385.171 138.132 383.659 139.079 382.227C140.026 380.807 140.5 379.675 140.5 378.844C140.5 377.839 139.922 377.031 138.791 376.419C137.647 375.807 136.089 375.31 134.114 374.918C132.14 374.525 129.842 374.26 127.221 374.121C124.6 373.983 121.84 373.913 118.942 373.913C115.928 373.913 113.434 374.052 111.46 374.329C109.485 374.606 108.273 374.745 107.823 374.745C107.488 374.745 106.945 374.699 106.195 374.618C105.444 374.537 104.693 374.283 103.943 373.867C103.192 373.451 102.534 372.828 101.98 371.985C101.426 371.154 101.149 369.953 101.149 368.394C101.149 367.332 101.38 366.131 101.865 364.803C102.338 363.464 103.169 362.032 104.37 360.496C105.571 358.96 107.211 357.309 109.301 355.52C111.39 353.741 114.046 351.871 117.279 349.919C120.674 347.864 123.872 346.167 126.851 344.862C129.83 343.557 132.532 342.541 134.957 341.814C137.382 341.086 139.518 340.601 141.354 340.347C143.19 340.093 144.645 339.966 145.695 339.966C148.201 339.966 150.072 340.29 151.296 340.925C152.496 341.594 153.409 342.714 154.021 344.331Z" fill="#23211D"/>
<path d="M188.291 311.735C188.291 312.069 188.233 312.947 188.129 314.367C188.013 315.787 187.863 317.67 187.667 320.014C187.471 322.357 187.24 325.071 186.963 328.165C186.686 331.26 186.408 334.585 186.131 338.153C189.642 337.703 192.967 337.357 196.119 337.114C199.271 336.86 201.927 336.745 204.098 336.745C204.825 336.745 205.46 336.883 206.026 337.16C206.58 337.437 207.042 337.761 207.4 338.119C207.758 338.477 208.058 338.869 208.278 339.285C208.497 339.701 208.636 340.047 208.693 340.324C208.693 340.601 208.717 340.867 208.774 341.121C208.832 341.375 208.855 341.64 208.855 341.917C208.855 343.037 208.37 344.146 207.389 345.266C206.419 346.386 204.952 347.079 203.001 347.356L185.196 349.284C184.919 353.291 184.665 357.425 184.446 361.651C184.226 365.888 184.018 370.103 183.822 374.317C183.626 378.52 183.476 382.665 183.36 386.73C183.245 390.794 183.199 394.639 183.199 398.265C183.199 400.609 183.256 402.502 183.36 403.946C183.476 405.389 183.522 406.347 183.522 406.786C183.522 407.733 183.337 408.668 182.979 409.581C182.621 410.504 182.194 411.336 181.721 412.086C181.247 412.837 180.751 413.449 180.22 413.922C179.688 414.396 179.261 414.638 178.926 414.638C176.917 414.638 175.335 414.014 174.158 412.756C172.991 411.497 172.114 409.811 171.525 407.698C170.936 405.585 170.567 403.161 170.393 400.424C170.232 397.699 170.139 394.859 170.139 391.903C170.139 384.94 170.336 377.954 170.728 370.969C171.121 363.983 171.675 357.251 172.402 350.785L161.953 352.044C161.791 352.044 161.618 352.067 161.456 352.125C161.295 352.182 161.098 352.205 160.867 352.205C159.805 352.205 158.962 351.951 158.316 351.455C157.681 350.958 157.184 350.37 156.849 349.7C156.514 349.03 156.306 348.349 156.226 347.656C156.145 346.963 156.099 346.421 156.099 346.028C156.099 345.254 156.214 344.527 156.433 343.857C156.653 343.188 157.08 342.772 157.692 342.599C158.858 342.148 160.914 341.663 163.835 341.132C166.756 340.601 170.058 340.058 173.742 339.504C174.354 334.989 174.977 330.856 175.624 327.092C176.259 323.327 176.894 320.071 177.506 317.312C178.118 314.552 178.684 312.404 179.215 310.88C179.746 309.344 180.208 308.582 180.589 308.582C180.704 308.582 180.843 308.617 181.005 308.663C181.166 308.721 181.305 308.744 181.42 308.744C181.755 308.744 182.021 308.559 182.217 308.201C182.413 307.843 182.783 307.659 183.349 307.659C183.845 307.659 184.388 307.809 184.977 308.121C185.566 308.432 186.085 308.802 186.57 309.252C187.044 309.702 187.448 310.153 187.783 310.626C188.129 311.088 188.291 311.458 188.291 311.735Z" fill="#23211D"/>
<path d="M256.832 361.05C256.889 363.002 256.716 365.38 256.335 368.198C255.942 371.015 255.504 374.017 254.996 377.227C254.499 380.437 254.026 383.705 253.575 387.053C253.125 390.402 252.906 393.543 252.906 396.498C252.906 398.45 253.044 400.297 253.321 402.052C253.598 403.807 254.072 405.332 254.742 406.613C255.134 407.341 255.342 407.976 255.365 408.53C255.388 409.084 255.354 409.569 255.238 409.996C255.123 410.412 255.019 410.77 254.903 411.082C254.788 411.382 254.788 411.682 254.903 411.959C255.019 412.236 254.984 412.56 254.822 412.918C254.661 413.276 254.407 413.611 254.072 413.922C253.737 414.222 253.356 414.453 252.94 414.592C252.525 414.731 252.144 414.684 251.809 414.465C251.197 414.072 250.712 413.853 250.342 413.795C249.984 413.738 249.673 413.749 249.419 413.841C249.165 413.922 248.945 414.026 248.749 414.13C248.553 414.246 248.322 414.246 248.045 414.13C247.098 413.634 246.07 413.045 244.95 412.375C243.83 411.705 243.114 410.978 242.779 410.204C242.56 409.869 242.352 409.315 242.156 408.53C241.959 407.756 241.798 406.833 241.659 405.77C241.521 404.708 241.394 403.565 241.278 402.341C241.163 401.117 241.082 399.916 241.024 398.75C239.188 402.202 237.225 405.078 235.135 407.364C233.045 409.65 230.956 411.474 228.866 412.837C226.776 414.199 224.709 415.158 222.677 415.724C220.644 416.278 218.785 416.555 217.123 416.555C215.391 416.555 213.878 416.336 212.562 415.885C211.257 415.435 210.229 414.904 209.514 414.303C206.777 411.567 204.849 409.361 203.706 407.652C202.562 405.955 202.043 404.57 202.158 403.519C202.435 399.951 203.301 396.66 204.745 393.658C206.188 390.644 208.001 387.873 210.172 385.344C212.342 382.804 214.779 380.53 217.481 378.486C220.183 376.454 222.942 374.641 225.76 373.059C228.577 371.477 231.348 370.138 234.073 369.052C236.798 367.967 239.281 367.089 241.509 366.42C241.394 363.406 241.267 360.773 241.128 358.522C240.99 356.259 240.782 354.607 240.505 353.545C239.673 350.093 238.392 347.518 236.66 345.809C234.928 344.111 232.838 343.257 230.39 343.257C228.831 343.257 227.261 343.846 225.667 345.012C224.085 346.178 222.642 347.772 221.36 349.781C220.079 351.79 219.028 354.099 218.231 356.72C217.423 359.341 216.996 362.101 216.938 364.999C216.938 365.727 216.961 366.42 217.019 367.089C217.077 367.759 217.157 368.452 217.273 369.179C217.331 369.572 217.204 369.849 216.892 370.011C216.58 370.184 216.211 370.299 215.76 370.392C215.31 370.472 214.836 370.542 214.34 370.599C213.843 370.657 213.416 370.738 213.081 370.853C212.804 370.969 212.585 371.038 212.412 371.061C212.25 371.096 212.077 371.061 211.915 370.98C211.754 370.9 211.534 370.75 211.292 370.519C211.038 370.299 210.691 370.022 210.253 369.687C209.802 369.352 209.352 369.075 208.878 368.856C208.405 368.637 207.989 368.44 207.62 368.267C207.262 368.105 206.95 367.944 206.696 367.805C206.442 367.667 206.315 367.482 206.315 367.262C206.315 363.81 207.077 360.242 208.613 356.57C210.149 352.887 212.204 349.538 214.802 346.502C217.388 343.465 220.402 340.971 223.831 339.019C227.261 337.068 230.898 336.098 234.743 336.098C237.86 336.098 240.562 336.572 242.849 337.518C245.135 338.465 247.086 339.689 248.703 341.202C250.319 342.703 251.636 344.377 252.675 346.213C253.702 348.049 254.511 349.908 255.1 351.767C255.688 353.637 256.104 355.393 256.358 357.032C256.624 358.637 256.774 359.988 256.832 361.05ZM241.705 375.922C240.031 376.534 238.195 377.343 236.186 378.347C234.177 379.352 232.145 380.529 230.09 381.904C228.023 383.266 225.967 384.848 223.901 386.626C221.834 388.416 219.917 390.39 218.139 392.561C216.026 395.067 214.49 397.295 213.543 399.247C212.596 401.198 212.008 402.849 211.788 404.223C211.569 405.586 211.627 406.659 211.95 407.445C212.285 408.23 212.677 408.703 213.116 408.865C214.848 409.535 216.638 409.604 218.508 409.073C220.379 408.542 222.238 407.595 224.108 406.232C225.979 404.87 227.78 403.219 229.535 401.302C231.29 399.374 232.953 397.399 234.512 395.367C236.071 393.335 237.468 391.326 238.692 389.351C239.916 387.377 240.92 385.656 241.705 384.213V375.922Z" fill="#23211D"/>
<path d="M324.114 309.23C324.114 310.569 324.079 312.278 324.033 314.368C323.975 316.458 323.906 318.836 323.825 321.515C323.744 324.194 323.64 327.069 323.536 330.164C323.421 333.258 323.34 336.468 323.282 339.816C324.899 338.87 326.839 337.934 329.09 337.011C331.342 336.087 333.72 335.105 336.191 334.043C338.674 332.981 341.145 331.838 343.627 330.614C346.11 329.39 348.373 328.027 350.44 326.515C355.509 322.67 359.308 319.171 361.848 316.03C364.388 312.878 365.647 309.969 365.647 307.301C365.647 306.181 365.462 305.234 365.104 304.461C364.746 303.687 364.307 302.983 363.811 302.371C362.529 301.643 360.624 301.031 358.084 300.535C355.544 300.038 352.437 299.784 348.766 299.784C345.313 299.784 341.838 300.05 338.362 300.581C334.875 301.112 331.527 301.782 328.294 302.59C325.06 303.398 322.035 304.276 319.229 305.223C316.412 306.17 313.918 307.059 311.747 307.902C309.576 308.733 307.821 309.472 306.482 310.119C305.143 310.765 304.334 311.135 304.057 311.25C303.78 311.366 303.457 311.539 303.099 311.793C302.741 312.047 302.383 312.162 302.06 312.162C301.332 312.162 300.836 311.885 300.559 311.331C300.281 310.777 300.201 310.188 300.305 309.576C299.854 309.414 299.496 309.091 299.219 308.618C298.942 308.144 298.723 307.625 298.549 307.07C298.388 306.516 298.272 305.973 298.215 305.442C298.157 304.911 298.134 304.507 298.134 304.23C298.134 303.11 298.619 302.128 299.6 301.262C300.57 300.396 301.84 299.634 303.399 298.965C303.792 298.803 304.635 298.41 305.951 297.798C307.256 297.186 308.93 296.471 310.962 295.662C312.994 294.854 315.292 294 317.855 293.11C320.419 292.221 323.144 291.402 326.042 290.639C328.94 289.889 331.919 289.265 334.991 288.757C338.05 288.261 341.087 288.007 344.101 288.007C346.272 288.065 348.581 288.192 351.04 288.388C353.488 288.584 355.913 288.988 358.315 289.6C360.705 290.212 362.956 291.078 365.046 292.187C367.136 293.307 368.903 294.808 370.358 296.701C371.917 297.925 373.291 299.588 374.491 301.678C375.692 303.768 376.293 306.285 376.293 309.241C376.293 311.308 376.108 313.155 375.75 314.795C375.392 316.435 375.069 317.601 374.792 318.259C373.337 321.885 371.489 325.002 369.238 327.623C366.986 330.244 364.561 332.484 361.963 334.355C359.377 336.225 356.767 337.796 354.146 339.077C351.525 340.359 349.158 341.421 347.045 342.253C349.389 342.253 351.791 342.368 354.273 342.588C356.756 342.807 359.204 343.211 361.629 343.8C364.053 344.389 366.374 345.232 368.603 346.352C370.831 347.472 372.898 348.892 374.792 350.613C376.016 351.952 377.136 353.395 378.14 354.954C378.972 356.293 379.745 357.864 380.438 359.677C381.131 361.489 381.477 363.452 381.477 365.565C381.812 366.905 381.974 368.44 381.974 370.161C381.974 372.112 381.812 374.283 381.477 376.685C381.2 378.798 380.507 381.28 379.387 384.121C378.267 386.961 376.547 389.883 374.203 392.896C371.859 395.91 368.811 398.843 365.046 401.718C361.282 404.593 356.594 407.087 350.96 409.2C347.449 410.597 344.239 411.602 341.353 412.214C338.455 412.826 335.833 413.137 333.501 413.137C332.381 413.137 331.169 413.022 329.864 412.803C328.559 412.583 327.324 412.26 326.192 411.844C325.049 411.428 324.102 410.909 323.352 410.297C322.601 409.685 322.22 408.958 322.22 408.126C322.22 407.676 322.081 407.364 321.804 407.168C321.527 406.972 321.215 406.741 320.881 406.463C320.603 407.41 320.28 408.161 319.922 408.715C319.564 409.269 319.183 409.72 318.791 410.054C318.34 410.447 317.902 410.724 317.451 410.886C317.232 410.886 317.036 410.828 316.862 410.713C316.528 410.655 316.274 410.435 316.112 410.043C315.892 410.493 315.592 410.944 315.234 411.417C314.876 411.89 314.518 412.133 314.195 412.133C314.033 412.133 313.791 412.121 313.479 412.087C313.167 412.052 312.867 411.683 312.555 410.955C312.244 410.228 311.944 408.992 311.632 407.237C311.32 405.482 311.043 402.838 310.8 399.293C310.546 395.76 310.339 391.176 310.177 385.541C310.015 379.918 309.923 372.897 309.923 364.48C309.923 361.085 309.923 357.506 309.923 353.742C309.923 349.977 309.946 346.271 310.004 342.622C310.061 338.974 310.154 335.463 310.292 332.092C310.431 328.72 310.627 325.66 310.881 322.901C311.135 320.141 311.447 317.832 311.84 315.961C312.232 314.091 312.729 312.832 313.341 312.162C313.791 311.608 314.576 311.077 315.719 310.58C316.862 310.084 317.994 309.622 319.102 309.206C320.211 308.791 321.192 308.456 322.024 308.202C322.855 307.948 323.225 307.775 323.109 307.659C323.386 307.775 323.629 307.948 323.825 308.202C324.01 308.433 324.114 308.779 324.114 309.23ZM327.035 352.356C326.642 352.356 326.077 352.137 325.326 351.686C324.576 351.236 323.756 350.716 322.855 350.093C322.693 354.769 322.52 359.457 322.359 364.134C322.197 368.81 322.024 373.255 321.862 377.47C321.7 381.673 321.573 385.564 321.481 389.132C321.4 392.7 321.354 395.679 321.354 398.081C322.024 397.018 322.751 396.002 323.525 395.032C324.31 394.062 325.072 393.196 325.823 392.446C326.573 391.695 327.266 391.095 327.912 390.645C328.548 390.194 329.044 389.975 329.379 389.975C329.494 389.975 329.598 389.998 329.714 390.056C329.829 390.113 330.072 390.333 330.464 390.725C330.58 390.725 330.684 390.702 330.799 390.645C330.915 390.587 331.019 390.564 331.134 390.564C331.584 390.564 331.919 390.76 332.139 391.153C332.358 391.545 332.473 392.296 332.473 393.416C332.473 394.028 332.312 394.559 331.977 394.998C331.642 395.448 331.261 395.852 330.845 396.21C330.43 396.568 330.014 396.926 329.587 397.249C329.171 397.584 328.871 397.919 328.709 398.254C329.16 398.369 329.598 398.45 330.049 398.508C330.499 398.566 331.192 398.589 332.139 398.589C332.635 398.531 333.651 398.439 335.187 398.3C336.723 398.161 338.685 397.746 341.076 397.041C343.466 396.349 346.249 395.24 349.389 393.739C352.541 392.238 355.982 390.09 359.712 387.308C362.887 384.906 365.451 382.458 367.402 379.952C369.353 377.447 370.843 375.091 371.87 372.886C372.898 370.681 373.579 368.752 373.914 367.078C374.249 365.404 374.411 364.203 374.411 363.487C374.191 361.432 373.314 359.55 371.778 357.841C370.242 356.143 368.21 354.677 365.681 353.453C363.141 352.229 360.174 351.282 356.779 350.613C353.384 349.943 349.724 349.608 345.833 349.608C343.212 349.608 340.902 349.747 338.893 350.024C336.884 350.301 335.118 350.624 333.582 350.982C332.046 351.34 330.753 351.663 329.691 351.94C328.651 352.217 327.762 352.356 327.035 352.356Z" fill="#23211D"/>
<path d="M446.311 409.523C446.311 410.02 445.895 410.643 445.052 411.359C444.221 412.087 443.159 412.445 441.877 412.445C441.485 412.445 440.78 412.248 439.741 411.856C438.713 411.463 437.64 410.897 436.52 410.147C435.4 409.396 434.407 408.473 433.506 407.387C432.617 406.302 432.143 405.066 432.086 403.669C431.97 403.057 431.924 402.203 431.924 401.117C431.924 400.032 431.924 398.762 431.924 397.319C431.924 395.09 431.924 392.608 431.924 389.883C431.924 387.158 431.982 384.398 432.086 381.604C431.693 383.613 431.22 385.691 430.665 387.827C430.111 389.975 429.407 392.1 428.575 394.224C427.744 396.349 426.763 398.427 425.654 400.494C424.534 402.561 423.252 404.535 421.809 406.429C421.024 407.433 420.204 408.276 419.338 408.981C418.472 409.674 417.629 410.262 416.786 410.736C415.955 411.209 415.17 411.556 414.442 411.775C413.715 411.994 413.161 412.11 412.768 412.11C412.549 412.11 412.029 411.867 411.221 411.394C410.413 410.921 409.466 410.309 408.38 409.558C407.295 408.808 406.14 407.976 404.916 407.052C403.693 406.129 402.515 405.217 401.406 404.293C400.286 403.369 399.293 402.515 398.393 401.706C397.504 400.898 396.857 400.24 396.464 399.743C396.072 399.189 395.725 398.242 395.425 396.903C395.113 395.564 394.848 393.924 394.628 391.973C394.409 390.021 394.224 387.827 394.086 385.368C393.947 382.92 393.878 380.299 393.878 377.516C393.878 376.015 393.901 374.064 393.959 371.662C394.016 369.272 394.12 366.685 394.294 363.926C394.467 361.166 394.675 358.383 394.917 355.566C395.171 352.749 395.471 350.22 395.841 347.957C396.199 345.694 396.638 343.858 397.134 342.438C397.631 341.017 398.219 340.302 398.889 340.302C399.339 340.302 400.113 340.429 401.233 340.683C402.342 340.937 403.485 341.064 404.662 341.064C406.394 341.064 407.595 340.913 408.3 340.602C408.992 340.302 409.512 340.14 409.847 340.14C410.401 340.14 410.678 340.613 410.678 341.56C410.678 341.837 410.678 342.103 410.678 342.357C410.678 342.611 410.62 342.9 410.517 343.234C410.459 343.569 410.332 344.435 410.136 345.821C409.939 347.218 409.708 348.996 409.42 351.167C409.142 353.338 408.865 355.774 408.588 358.476C408.311 361.178 408.046 364.007 407.792 366.963C407.538 369.919 407.33 372.898 407.168 375.911C407.006 378.925 406.914 381.788 406.914 384.525C406.914 386.361 406.96 388.197 407.041 390.044C407.122 391.88 407.272 393.554 407.503 395.056C407.722 396.557 408.034 397.769 408.427 398.693C408.819 399.616 409.293 400.067 409.847 400.067C410.343 400.067 411.059 399.836 411.983 399.351C412.907 398.877 413.992 397.919 415.239 396.464C416.498 395.021 417.872 392.954 419.373 390.275C420.874 387.596 422.502 384.052 424.257 379.618C426.012 375.184 427.848 369.757 429.776 363.325C431.705 356.894 433.668 349.215 435.665 340.302C435.665 340.14 435.757 340.013 435.954 339.92C436.15 339.84 436.381 339.793 436.67 339.793C437.397 339.793 438.309 339.863 439.429 340.001C440.538 340.14 441.612 340.336 442.651 340.59C443.678 340.844 444.568 341.133 445.33 341.468C446.08 341.803 446.461 342.161 446.461 342.553C446.461 345.059 446.346 347.795 446.126 350.74C445.907 353.696 445.653 356.744 445.376 359.896C445.099 363.048 444.845 366.258 444.625 369.549C444.406 372.84 444.29 376.096 444.29 379.329C444.29 385.125 444.475 390.656 444.833 395.922C445.203 401.21 445.699 405.736 446.311 409.523Z" fill="#23211D"/>
<path d="M501.469 349.931C501.411 351.547 501.261 353.152 501.007 354.734C500.753 356.316 500.407 357.829 499.968 359.249C499.517 360.669 498.975 361.939 498.34 363.048C497.693 364.168 496.989 365.057 496.204 365.727C495.534 366.281 495.003 366.558 494.61 366.558C494.218 366.558 493.894 366.443 493.652 366.223C493.398 366.004 493.19 365.75 493.028 365.473C492.867 365.196 492.636 365.022 492.359 364.976C492.139 364.918 491.839 364.93 491.481 365.022C491.123 365.103 490.754 365.115 490.396 365.069C490.038 365.011 489.703 364.803 489.391 364.445C489.079 364.087 488.871 363.429 488.768 362.482C488.652 361.42 488.698 360.046 488.895 358.348C489.091 356.651 489.183 354.988 489.183 353.372C489.183 351.928 489.033 350.716 488.721 349.735C488.41 348.765 487.867 348.268 487.093 348.268C486.701 348.268 486.019 348.557 485.05 349.146C484.08 349.735 483.006 350.97 481.828 352.864C480.662 354.757 479.484 357.506 478.318 361.097C477.152 364.687 476.205 369.468 475.477 375.426C475.477 383.116 475.535 389.305 475.639 393.981C475.755 398.658 475.801 402.306 475.801 404.927C475.801 407.156 475.743 408.749 475.639 409.696C475.524 410.643 475.246 411.255 474.808 411.532C474.531 411.694 473.988 411.902 473.18 412.156C472.371 412.41 471.505 412.641 470.593 412.871C469.669 413.091 468.792 413.287 467.961 413.46C467.129 413.622 466.598 413.68 466.367 413.622C466.205 413.564 465.894 413.38 465.443 413.079C464.993 412.768 464.543 412.398 464.069 411.948C463.596 411.497 463.169 411.047 462.776 410.574C462.384 410.1 462.164 409.696 462.106 409.361C461.991 408.807 461.956 407.537 461.979 405.562C462.003 403.588 462.037 401.209 462.06 398.415C462.083 395.632 462.13 392.573 462.187 389.259C462.245 385.945 462.268 382.642 462.268 379.352C462.268 377.239 462.337 374.883 462.476 372.285C462.614 369.699 462.776 367.066 462.972 364.387C463.169 361.708 463.377 359.099 463.596 356.536C463.815 353.972 464.023 351.674 464.219 349.642C464.416 347.61 464.577 345.913 464.716 344.539C464.855 343.176 464.947 342.356 465.005 342.068C465.062 341.617 465.27 341.456 465.628 341.571C465.986 341.687 466.379 341.883 466.794 342.16C467.21 342.437 467.591 342.691 467.926 342.911C468.261 343.13 468.48 343.13 468.596 342.911C468.711 342.414 469.127 342.345 469.854 342.703C470.582 343.061 471.251 343.465 471.863 343.915C472.083 344.192 472.348 344.435 472.66 344.619C472.96 344.816 473.26 345.07 473.538 345.37C473.815 345.682 474.057 346.086 474.253 346.582C474.45 347.079 474.542 347.749 474.542 348.592C474.542 349.377 474.6 350.543 474.704 352.102C474.819 353.66 474.958 355.496 475.119 357.621C475.731 355.612 476.47 353.499 477.336 351.27C478.202 349.042 479.242 346.998 480.466 345.128C481.689 343.257 483.144 341.71 484.807 340.486C486.481 339.262 488.479 338.65 490.823 338.65C492.104 338.65 493.386 338.904 494.668 339.4C495.95 339.897 497.104 340.636 498.132 341.617C499.159 342.599 499.979 343.777 500.603 345.174C501.249 346.559 501.527 348.153 501.469 349.931Z" fill="#23211D"/>
<path d="M537.079 406.267C540.428 406.267 543.753 406.578 547.067 407.19C550.381 407.802 553.383 408.83 556.05 410.285C558.729 411.728 560.888 413.645 562.528 416.012C564.167 418.379 564.999 421.347 564.999 424.914C564.999 427.536 564.387 430.18 563.163 432.859C561.939 435.537 560.242 438.124 558.059 440.629C555.888 443.135 553.337 445.502 550.415 447.731C547.494 449.959 544.33 451.899 540.924 453.538C537.529 455.178 533.985 456.471 530.313 457.43C526.641 458.377 522.958 458.85 519.286 458.85C516.272 458.85 513.443 458.527 510.799 457.892C508.155 457.245 505.834 456.287 503.859 455.005C501.885 453.723 500.303 452.118 499.137 450.202C497.971 448.285 497.382 446.01 497.382 443.389C497.382 440.826 497.878 438.412 498.883 436.161C499.887 433.898 501.215 431.831 502.855 429.937C504.495 428.044 506.377 426.323 508.501 424.799C510.614 423.263 512.808 421.982 515.06 420.954C517.311 419.926 519.528 419.13 521.71 418.575C523.881 418.021 525.856 417.744 527.645 417.744C528.592 417.859 529.239 417.975 529.562 418.125C529.897 418.264 530.059 418.414 530.059 418.587C530.059 418.76 529.978 418.968 529.805 419.21C529.643 419.464 529.551 419.672 529.551 419.834C529.666 420.169 529.77 420.561 529.885 421C530.001 421.45 530.047 421.889 530.047 422.34C530.047 422.894 529.955 423.379 529.758 423.806C529.562 424.222 529.158 424.487 528.546 424.603C526.202 425.157 523.627 426.104 520.81 427.443C517.993 428.783 515.348 430.353 512.866 432.166C510.383 433.979 508.316 435.93 506.642 438.02C504.968 440.11 504.102 442.211 504.056 444.336C504.056 445.34 504.529 446.056 505.476 446.507C506.423 446.957 507.762 447.176 509.483 447.176C511.596 447.176 514.136 446.865 517.092 446.253C520.048 445.641 523.108 444.763 526.283 443.62C529.458 442.477 532.599 441.08 535.682 439.44C538.776 437.8 541.559 435.941 544.042 433.886C546.524 431.819 548.51 429.591 550.023 427.201C551.524 424.799 552.274 422.236 552.274 419.511C552.274 418.171 552.009 417.132 551.478 416.381C550.947 415.631 550.335 415.054 549.642 414.673C548.949 414.28 548.222 414.049 547.471 413.957C546.72 413.876 546.097 413.83 545.589 413.83C541.628 413.83 537.587 414.061 533.465 414.546C529.343 415.019 525.59 415.516 522.219 416.047C518.847 416.578 516.076 417.074 513.905 417.548C511.734 418.021 510.591 418.264 510.476 418.264C509.252 418.264 508.12 418.01 507.093 417.513C506.065 417.017 505.187 416.37 504.46 415.596C503.732 414.811 503.167 413.911 502.751 412.883C502.335 411.855 502.127 410.804 502.127 409.754C502.127 408.922 502.624 407.71 503.629 406.117C504.633 404.523 505.938 402.814 507.554 400.978C509.171 399.142 511.018 397.33 513.108 395.54C515.198 393.762 517.3 392.284 519.424 391.106C517.531 390.101 515.833 388.877 514.321 387.423C512.82 385.979 511.55 384.409 510.522 382.746C509.494 381.072 508.697 379.305 508.143 377.435C507.589 375.564 507.312 373.659 507.312 371.708C507.312 367.92 507.843 364.56 508.894 361.639C509.956 358.718 511.342 356.166 513.074 353.995C514.794 351.824 516.734 350.012 518.882 348.568C521.029 347.125 523.154 345.947 525.278 345.058C527.391 344.169 529.401 343.546 531.294 343.176C533.188 342.818 534.781 342.633 536.063 342.633C536.675 342.633 537.194 342.668 537.61 342.714C538.026 342.772 538.407 342.853 538.742 342.968C540.139 340.74 541.732 338.361 543.545 335.821C545.358 333.281 547.217 330.775 549.145 328.304C551.074 325.821 552.99 323.454 554.907 321.203C556.835 318.951 558.59 316.942 560.172 315.187C561.766 313.432 563.117 312.035 564.225 311.007C565.334 309.98 566.096 309.46 566.477 309.46C566.973 309.46 567.585 309.783 568.313 310.418C569.04 311.053 569.733 311.781 570.403 312.589C571.072 313.397 571.638 314.183 572.111 314.933C572.585 315.684 572.827 316.203 572.827 316.48C572.827 316.757 572.712 317.011 572.492 317.231C572.273 317.45 572.158 317.646 572.158 317.82C572.158 318.097 572.308 318.339 572.619 318.536C572.92 318.732 573.382 318.963 573.994 319.251C574.109 319.367 574.19 319.413 574.248 319.413C574.305 319.413 574.328 319.471 574.328 319.586C574.328 319.806 573.97 320.187 573.243 320.718C572.516 321.249 571.349 322.161 569.733 323.478C568.116 324.782 566.026 326.607 563.463 328.951C560.9 331.295 557.747 334.378 554.018 338.223C553.129 339.054 552.205 340.093 551.258 341.317C550.311 342.541 549.284 343.857 548.164 345.243C549.607 346.028 551.12 347.056 552.678 348.337C554.237 349.619 555.646 351.109 556.905 352.806C558.163 354.503 559.191 356.443 559.999 358.614C560.807 360.785 561.211 363.129 561.211 365.634C561.211 370.98 560.322 375.472 558.533 379.086C556.754 382.712 554.434 385.621 551.593 387.815C548.753 390.021 545.577 391.591 542.067 392.538C538.557 393.485 535.105 393.958 531.698 393.958C530.867 393.958 530.07 393.935 529.32 393.877C528.569 393.819 527.83 393.739 527.103 393.623C525.821 394.454 524.366 395.494 522.761 396.718C521.145 397.942 519.551 399.281 517.992 400.724C516.434 402.179 515.002 403.646 513.686 405.158C512.381 406.659 511.388 408.079 510.718 409.419C512.947 409.361 515.094 409.188 517.15 408.876C519.216 408.564 521.283 408.218 523.373 407.837C525.463 407.444 527.622 407.098 529.851 406.798C532.114 406.417 534.516 406.267 537.079 406.267ZM534.493 352.864C534.493 351.755 535.128 349.85 536.409 347.183C533.788 348.014 531.444 349.273 529.389 350.947C527.322 352.621 525.567 354.515 524.124 356.628C522.669 358.752 521.56 361.016 520.775 363.44C519.99 365.865 519.609 368.278 519.609 370.668C519.609 372.4 519.817 374.052 520.233 375.645C520.648 377.227 521.306 378.659 522.195 379.906C523.085 381.164 524.239 382.169 525.659 382.919C527.08 383.67 528.823 384.051 530.878 384.051C533.107 384.051 535.105 383.647 536.86 382.839C538.615 382.03 540.162 380.968 541.501 379.663C542.841 378.359 543.972 376.892 544.885 375.276C545.808 373.659 546.559 372.054 547.136 370.472C547.725 368.879 548.152 367.389 548.429 366.004C548.706 364.607 548.845 363.498 548.845 362.655C548.845 359.307 548.302 356.709 547.217 354.838C546.132 352.968 544.861 351.57 543.418 350.612C542.633 351.559 541.836 352.471 540.993 353.326C540.162 354.191 539.296 355.069 538.407 355.958C538.291 356.074 538.13 356.131 537.91 356.131C537.749 356.131 537.599 356.05 537.495 355.877C537.379 355.704 537.183 355.623 536.906 355.623C536.733 355.623 536.571 355.704 536.409 355.877C536.248 356.039 536.017 356.131 535.74 356.131C535.347 356.131 535.047 355.912 534.816 355.462C534.597 355 534.493 354.145 534.493 352.864Z" fill="#23211D"/>
<path d="M628.852 379.525C628.852 380.137 628.875 380.865 628.932 381.696C628.99 382.527 629.013 383.474 629.013 384.537C629.013 385.876 628.817 387.527 628.424 389.513C628.032 391.488 627.408 393.566 626.542 395.737C625.676 397.908 624.522 400.078 623.078 402.261C621.623 404.431 619.845 406.383 617.732 408.115C615.619 409.847 613.125 411.244 610.25 412.329C607.375 413.415 604.107 413.957 600.424 413.957C597.133 413.957 593.784 413.334 590.355 412.075C586.926 410.817 583.808 408.877 580.991 406.221C578.173 403.577 575.864 400.205 574.051 396.106C572.238 392.007 571.338 387.123 571.338 381.442C571.338 377.874 571.8 374.364 572.712 370.912C573.636 367.459 574.86 364.203 576.384 361.132C577.919 358.072 579.732 355.243 581.822 352.645C583.912 350.058 586.118 347.83 588.427 345.959C590.736 344.089 593.138 342.634 595.62 341.572C598.103 340.509 600.505 339.99 602.849 339.99C606.913 339.99 610.273 340.625 612.917 341.906C615.561 343.188 617.663 344.782 619.233 346.675C620.792 348.569 621.889 350.59 622.535 352.737C623.171 354.885 623.494 356.813 623.494 358.545C623.494 360.219 623.09 362.125 622.281 364.272C621.473 366.42 620.145 368.452 618.309 370.369C616.474 372.286 614.072 373.902 611.116 375.218C608.16 376.523 604.546 377.181 600.251 377.181C597.964 377.181 595.921 376.858 594.108 376.223C592.295 375.588 590.69 374.78 589.304 373.798C587.907 372.828 586.729 371.766 585.748 370.623C584.778 369.48 583.947 368.406 583.277 367.401C582.272 370.854 581.776 374.895 581.776 379.525C581.776 382.701 582.238 385.553 583.15 388.093C584.074 390.633 585.332 392.792 586.949 394.571C588.565 396.36 590.482 397.723 592.722 398.67C594.951 399.616 597.399 400.09 600.077 400.09C603.426 400.09 606.347 399.524 608.853 398.381C611.358 397.238 613.541 395.806 615.411 394.074C617.282 392.342 618.898 390.471 620.261 388.428C621.623 386.396 622.813 384.525 623.817 382.828C624.822 381.13 625.699 379.722 626.45 378.602C627.2 377.493 627.939 376.962 628.667 377.02C629.002 377.02 629.163 377.297 629.163 377.851C629.163 378.128 629.14 378.405 629.082 378.682C629.048 378.971 628.955 379.248 628.852 379.525ZM603.691 348.43C602.687 348.43 601.394 348.638 599.8 349.054C598.218 349.469 596.544 350.208 594.789 351.271C593.034 352.333 591.29 353.765 589.57 355.578C587.838 357.39 586.337 359.688 585.055 362.471C585.829 362.078 586.522 361.744 587.099 361.466C587.688 361.189 588.092 361.051 588.311 361.051C588.427 361.051 588.589 361.166 588.808 361.386C590.09 363.556 591.695 365.104 593.611 366.027C595.528 366.951 597.687 367.401 600.089 367.401C601.983 367.401 603.611 367.078 604.973 366.443C606.336 365.808 607.467 364.977 608.356 363.972C609.245 362.967 609.892 361.871 610.285 360.67C610.677 359.469 610.873 358.291 610.873 357.113C610.873 354.608 610.238 352.529 608.957 350.89C607.675 349.25 605.92 348.43 603.691 348.43Z" fill="#23211D"/>
<path d="M680.672 349.931C680.614 351.547 680.464 353.152 680.21 354.734C679.956 356.316 679.61 357.829 679.171 359.249C678.721 360.669 678.178 361.939 677.543 363.048C676.896 364.168 676.192 365.057 675.407 365.727C674.737 366.281 674.206 366.558 673.825 366.558C673.432 366.558 673.109 366.443 672.867 366.223C672.613 366.004 672.405 365.75 672.243 365.473C672.081 365.196 671.85 365.022 671.573 364.976C671.354 364.918 671.054 364.93 670.696 365.022C670.338 365.103 669.968 365.115 669.61 365.069C669.252 365.011 668.918 364.803 668.606 364.445C668.294 364.087 668.086 363.429 667.982 362.482C667.867 361.42 667.913 360.046 668.109 358.348C668.306 356.651 668.398 354.988 668.398 353.372C668.398 351.928 668.248 350.716 667.936 349.735C667.624 348.765 667.082 348.268 666.308 348.268C665.916 348.268 665.234 348.557 664.264 349.146C663.294 349.735 662.221 350.97 661.043 352.864C659.877 354.757 658.699 357.506 657.533 361.097C656.366 364.687 655.42 369.468 654.692 375.426C654.692 383.116 654.75 389.305 654.854 393.981C654.969 398.658 655.016 402.306 655.016 404.927C655.016 407.156 654.958 408.749 654.854 409.696C654.738 410.643 654.461 411.255 654.023 411.532C653.745 411.694 653.203 411.902 652.394 412.156C651.586 412.41 650.72 412.641 649.808 412.871C648.884 413.091 648.007 413.287 647.175 413.46C646.344 413.622 645.813 413.68 645.582 413.622C645.42 413.564 645.109 413.38 644.658 413.079C644.208 412.768 643.758 412.398 643.284 411.948C642.811 411.497 642.384 411.047 641.991 410.574C641.598 410.1 641.379 409.696 641.321 409.361C641.206 408.807 641.171 407.537 641.194 405.562C641.217 403.588 641.252 401.209 641.275 398.415C641.298 395.632 641.344 392.573 641.402 389.259C641.46 385.945 641.483 382.642 641.483 379.352C641.483 377.239 641.552 374.883 641.691 372.285C641.829 369.699 641.991 367.066 642.187 364.387C642.384 361.708 642.591 359.099 642.811 356.536C643.03 353.972 643.238 351.674 643.434 349.642C643.631 347.61 643.792 345.913 643.931 344.539C644.069 343.176 644.162 342.356 644.219 342.068C644.277 341.617 644.485 341.456 644.843 341.571C645.201 341.687 645.593 341.883 646.009 342.16C646.425 342.437 646.806 342.691 647.141 342.911C647.476 343.13 647.695 343.13 647.81 342.911C647.926 342.414 648.342 342.345 649.069 342.703C649.796 343.061 650.466 343.465 651.078 343.915C651.298 344.192 651.563 344.435 651.875 344.619C652.175 344.816 652.475 345.07 652.752 345.37C653.03 345.682 653.272 346.086 653.468 346.582C653.665 347.079 653.757 347.749 653.757 348.592C653.757 349.377 653.815 350.543 653.919 352.102C654.034 353.66 654.173 355.496 654.334 357.621C654.946 355.612 655.685 353.499 656.551 351.27C657.417 349.042 658.456 346.998 659.68 345.128C660.904 343.257 662.359 341.71 664.022 340.486C665.696 339.262 667.694 338.65 670.038 338.65C671.319 338.65 672.601 338.904 673.883 339.4C675.164 339.897 676.319 340.636 677.347 341.617C678.374 342.599 679.194 343.777 679.818 345.174C680.453 346.559 680.73 348.153 680.672 349.931Z" fill="#23211D"/>
</svg>
